<svg xmlns="http://www.w3.org/2000/svg" xmlns:xlink="http://www.w3.org/1999/xlink" width="2000" zoomAndPan="magnify" viewBox="0 0 1500 1499.999933" height="2000" preserveAspectRatio="xMidYMid meet" version="1.0"><defs><clipPath id="1bffca8b93"><path d="M 446 356 L 1126.367188 356 L 1126.367188 1175.117188 L 446 1175.117188 Z M 446 356 " clip-rule="nonzero"/></clipPath></defs><rect x="-150" width="1800" fill="#ffffff" y="-149.999993" height="1799.99992" fill-opacity="1"/><rect x="-150" width="1800" fill="#ffffff" y="-149.999993" height="1799.99992" fill-opacity="1"/><g clip-path="url(#1bffca8b93)"><path fill="#742300" d="M 480.988281 361.191406 C 451.480469 371.714844 446.855469 383.59375 446.855469 448.816406 L 446.855469 500.164062 L 676.648438 501.042969 C 904.644531 501.917969 906.511719 501.976562 915.457031 508.65625 L 924.476562 515.386719 L 925.390625 567.757812 C 925.890625 596.566406 925.511719 623.339844 924.542969 627.265625 C 921.230469 640.703125 907.96875 644.09375 858.714844 644.09375 C 806.535156 644.09375 792.097656 647.367188 779.136719 662.128906 C 765.910156 677.191406 763.175781 690.902344 763.15625 742.332031 L 763.140625 787.859375 L 848.726562 787.859375 C 914.21875 787.859375 938.601562 786.742188 952.578125 783.101562 C 1012.496094 767.496094 1059.09375 719.640625 1071.535156 660.929688 C 1078.003906 630.402344 1077.890625 512.585938 1071.371094 484.917969 C 1059.742188 435.589844 1029.621094 397.261719 985.5625 375.734375 C 970.222656 368.242188 951.125 361.738281 938.851562 359.835938 C 926.378906 357.898438 833.246094 356.660156 705.632812 356.726562 C 534.757812 356.824219 490.792969 357.695312 480.988281 361.191406 M 1191.238281 749.523438 C 1191.238281 1059.769531 1191.800781 1100.949219 1196.03125 1100.949219 C 1200.261719 1100.949219 1200.824219 1059.769531 1200.824219 749.523438 C 1200.824219 439.273438 1200.261719 398.097656 1196.03125 398.097656 C 1191.800781 398.097656 1191.238281 439.273438 1191.238281 749.523438 M 2117.726562 448.875 C 2073.210938 464.644531 2054.9375 513.375 2078.3125 553.976562 C 2088.164062 571.09375 2104.867188 583.394531 2141.714844 600.683594 C 2159.316406 608.9375 2173.898438 618.230469 2179.253906 624.59375 C 2193.03125 640.964844 2190.109375 658.710938 2172.101562 668.023438 C 2156.6875 675.992188 2142.644531 673.90625 2114.460938 659.453125 L 2088.332031 646.054688 L 2082.84375 653.332031 C 2079.824219 657.335938 2074.613281 665.703125 2071.257812 671.933594 L 2065.160156 683.253906 L 2076.199219 692.472656 C 2096.316406 709.265625 2118.625 715.953125 2154.464844 715.9375 C 2191.300781 715.917969 2204.414062 710.914062 2223.785156 689.46875 C 2238.289062 673.414062 2243.386719 657.769531 2241.699219 634.457031 C 2239.320312 601.566406 2216.8125 577.828125 2168.84375 557.625 C 2138.152344 544.699219 2127.664062 537.105469 2122.097656 523.773438 C 2118.207031 514.464844 2118.238281 511.804688 2122.304688 503.933594 C 2132.480469 484.257812 2159.058594 483.179688 2191.691406 501.117188 C 2208.992188 510.628906 2210.378906 510.898438 2215.964844 505.84375 C 2219.222656 502.894531 2225.136719 494.707031 2229.101562 487.648438 L 2236.3125 474.820312 L 2227.769531 466.898438 C 2205.542969 446.300781 2150.453125 437.28125 2117.726562 448.875 M 2491.515625 447.738281 C 2410.191406 470.445312 2367.804688 563.222656 2403.902344 639.523438 C 2440.65625 717.214844 2543.066406 742.261719 2611.269531 690.234375 C 2617.445312 685.527344 2622.5 679.269531 2622.5 676.328125 C 2622.5 673.386719 2616.007812 664.613281 2608.074219 656.828125 L 2593.65625 642.671875 L 2584.914062 648.347656 C 2546.210938 673.496094 2505.167969 672.042969 2474.546875 644.441406 C 2441.707031 614.839844 2437.171875 559.648438 2464.621094 523.660156 C 2474.871094 510.222656 2500.964844 495.164062 2518.570312 492.523438 C 2535.988281 489.910156 2560.226562 495.359375 2575.308594 505.277344 C 2581.859375 509.585938 2589.835938 513.109375 2593.03125 513.109375 C 2600.230469 513.109375 2622.5 490.796875 2622.5 483.585938 C 2622.5 476.691406 2606.183594 464.402344 2582.8125 453.707031 C 2559.226562 442.910156 2518.382812 440.238281 2491.515625 447.738281 M 2867.644531 459.59375 C 2863.402344 468.820312 2835.820312 528.605469 2806.34375 592.449219 C 2771.953125 666.941406 2753.855469 709.636719 2755.832031 711.613281 C 2757.523438 713.304688 2768.835938 714.265625 2780.957031 713.738281 L 2803.003906 712.78125 L 2814.003906 689.621094 L 2825.003906 666.457031 L 2938.589844 666.457031 L 2960.730469 714.378906 L 2983.402344 714.378906 C 2999.917969 714.378906 3006.542969 713.160156 3007.792969 709.894531 C 3009.351562 705.835938 2897.699219 456.273438 2890.09375 446.816406 C 2883.195312 438.230469 2875.4375 442.648438 2867.644531 459.59375 M 3043.148438 444.953125 C 3040.046875 448.054688 3040.628906 705.625 3043.75 710.542969 C 3045.597656 713.457031 3052.957031 714.410156 3068.460938 713.738281 L 3090.535156 712.78125 L 3093.730469 545.210938 L 3172.003906 631.476562 C 3238.636719 704.917969 3251.464844 717.617188 3258.261719 716.863281 L 3266.25 715.976562 L 3266.25 447.613281 L 3243.085938 446.675781 C 3230.347656 446.160156 3219.628906 446.160156 3219.261719 446.675781 C 3218.902344 447.191406 3217.824219 483.65625 3216.867188 527.703125 L 3215.132812 607.789062 L 3137.410156 525.304688 C 3061.851562 445.117188 3051.664062 436.433594 3043.148438 444.953125 M 3370.632812 448.71875 C 3326.589844 464.421875 3307.621094 510.425781 3328.394531 551.144531 C 3337.148438 568.304688 3353.800781 581.335938 3387.898438 597.707031 C 3433.75 619.722656 3445.574219 633.386719 3436.902344 654.320312 C 3427.0625 678.078125 3393.953125 678.414062 3357.074219 655.136719 C 3340.886719 644.914062 3337.902344 646.0625 3325.996094 667.070312 L 3317.5 682.0625 L 3324.875 689.910156 C 3346.371094 712.792969 3405.265625 724.4375 3440.425781 712.761719 C 3473.335938 701.828125 3494.472656 673.875 3494.605469 641.109375 C 3494.75 605.421875 3477.132812 584.863281 3425.566406 560.539062 C 3388.003906 542.820312 3374.550781 532.597656 3371.699219 519.601562 C 3369.082031 507.6875 3374.039062 498.550781 3386.667969 492.027344 C 3399.996094 485.132812 3417.347656 487.695312 3441.410156 500.105469 C 3451.871094 505.5 3461.597656 509.914062 3463.019531 509.914062 C 3467.492188 509.914062 3485.089844 481.941406 3485.089844 474.835938 C 3485.089844 469.539062 3479.773438 465.539062 3460.714844 456.488281 C 3429.921875 441.863281 3397.652344 439.082031 3370.632812 448.71875 M 1346.148438 449.761719 C 1345.25 452.101562 1344.890625 512.234375 1345.347656 583.394531 L 1346.1875 712.78125 L 1394.109375 712.78125 L 1394.988281 666.0625 L 1395.871094 619.351562 L 1430.214844 617.933594 C 1460.519531 616.6875 1466.546875 615.4375 1481.480469 607.308594 C 1542.484375 574.109375 1542.066406 488.554688 1480.75 456.257812 C 1465 447.964844 1462.226562 447.601562 1406.085938 446.578125 C 1359.746094 445.730469 1347.441406 446.382812 1346.148438 449.761719 M 1572.058594 449.851562 C 1569.203125 452.703125 1568.222656 485.785156 1568.222656 578.976562 C 1568.222656 647.890625 1569.09375 706.546875 1570.164062 709.324219 C 1572.988281 716.6875 1617.769531 716.6875 1620.59375 709.324219 C 1621.664062 706.546875 1622.535156 681.386719 1622.535156 653.417969 L 1622.535156 602.5625 L 1743.785156 602.5625 L 1744.65625 657.671875 L 1745.535156 712.78125 L 1793.457031 712.78125 L 1793.457031 447.613281 L 1745.535156 447.613281 L 1744.65625 501.128906 L 1743.78125 554.640625 L 1622.535156 554.640625 L 1622.535156 504.164062 C 1622.535156 469.160156 1621.359375 452.507812 1618.699219 449.851562 C 1616.558594 447.707031 1606.277344 446.015625 1595.378906 446.015625 C 1584.480469 446.015625 1574.199219 447.707031 1572.058594 449.851562 M 1829.132812 448.148438 C 1824.097656 453.179688 1829.21875 462.394531 1869.332031 520.488281 L 1911.664062 581.796875 L 1913.257812 647.289062 L 1914.855469 712.78125 L 1962.777344 712.78125 L 1963.648438 649.265625 L 1964.511719 585.75 L 2009.46875 520.5625 C 2037.253906 480.273438 2053.722656 453.535156 2052.578125 450.5625 C 2051.109375 446.734375 2045.714844 445.9375 2026.210938 446.683594 L 2001.691406 447.613281 L 1971.054688 491.484375 C 1954.203125 515.613281 1939.695312 535.328125 1938.816406 535.300781 C 1937.9375 535.269531 1926.4375 519.226562 1913.257812 499.652344 C 1875.78125 443.984375 1878.070312 446.015625 1852.808594 446.015625 C 1840.957031 446.015625 1830.300781 446.976562 1829.132812 448.148438 M 2291.757812 449.875 C 2290.886719 452.152344 2290.546875 512.234375 2291.003906 583.394531 L 2291.839844 712.78125 L 2339.761719 712.78125 L 2339.761719 447.613281 L 2316.554688 446.675781 C 2299.796875 446 2292.90625 446.886719 2291.757812 449.875 M 2671.9375 449.875 C 2671.0625 452.152344 2670.726562 512.234375 2671.183594 583.394531 L 2672.019531 712.78125 L 2719.941406 712.78125 L 2719.941406 447.613281 L 2696.734375 446.675781 C 2679.976562 446 2673.082031 446.886719 2671.9375 449.875 M 1395.707031 532.277344 L 1395.707031 570.613281 L 1419.980469 570.613281 C 1458.957031 570.613281 1475.574219 558.460938 1475.574219 529.949219 C 1475.574219 504.992188 1458.445312 493.9375 1419.769531 493.9375 L 1395.707031 493.9375 Z M 2878.917969 546.71875 C 2873.886719 556.179688 2846.136719 618.335938 2846.136719 620.152344 C 2846.136719 621.019531 2862.597656 621.730469 2882.722656 621.730469 L 2919.304688 621.730469 L 2904.175781 588.984375 C 2895.851562 570.972656 2887.523438 552.671875 2885.664062 548.316406 C 2882.410156 540.683594 2882.164062 540.625 2878.917969 546.71875 M 447.585938 855.753906 L 448.453125 1067.902344 L 457.609375 1079.90625 C 475.210938 1102.980469 479.394531 1104.117188 546.757812 1104.128906 L 606.730469 1104.140625 L 605.863281 892.238281 L 604.996094 680.332031 L 595.996094 668.539062 C 579.097656 646.382812 576.988281 645.804688 508.441406 644.648438 L 446.722656 643.605469 Z M 1348.40625 806.542969 C 1345.554688 808.375 1344.546875 815.164062 1345.210938 828.089844 L 1346.1875 846.960938 L 1375.691406 847.878906 L 1405.199219 848.800781 L 1406.042969 950.113281 L 1406.886719 1051.429688 L 1425.523438 1052.394531 C 1436.519531 1052.964844 1446.019531 1051.820312 1448.6875 1049.605469 C 1452.410156 1046.519531 1453.210938 1028.382812 1453.210938 947.207031 L 1453.210938 848.558594 L 1511.007812 848.558594 L 1510.066406 826.996094 L 1509.121094 805.429688 L 1430.847656 804.648438 C 1387.796875 804.21875 1350.699219 805.074219 1348.40625 806.542969 M 1575.382812 807.535156 C 1569.164062 813.753906 1569.695312 1044.425781 1575.941406 1049.605469 C 1578.609375 1051.820312 1588.109375 1052.964844 1599.105469 1052.394531 L 1617.742188 1051.429688 L 1620.9375 949.195312 L 1732.753906 949.195312 L 1735.949219 1051.429688 L 1777.480469 1051.429688 L 1777.480469 805.429688 L 1735.949219 805.429688 L 1732.753906 904.46875 L 1620.9375 904.46875 L 1617.742188 805.429688 L 1598.546875 804.5 C 1586.371094 803.910156 1577.898438 805.019531 1575.382812 807.535156 M 1872.488281 806.300781 C 1869.335938 808.449219 1868.636719 835.488281 1869.292969 930.242188 L 1870.128906 1051.429688 L 1888.769531 1052.394531 C 1899.761719 1052.964844 1909.261719 1051.820312 1911.929688 1049.605469 C 1915.433594 1046.699219 1916.453125 1035.855469 1916.453125 1001.519531 L 1916.453125 957.183594 L 1953.195312 957.191406 L 1977.15625 1004.3125 L 2001.117188 1051.429688 L 2022.179688 1052.359375 C 2055.460938 1053.835938 2055.613281 1052.03125 2026.636719 998.640625 C 2013.160156 973.8125 2002.625 953.191406 2003.222656 952.8125 C 2026.121094 938.324219 2033.359375 932.054688 2040.867188 920.214844 C 2064.664062 882.695312 2050.6875 833.894531 2010.300781 813.457031 C 1995.695312 806.0625 1991.050781 805.511719 1935.625 804.5625 C 1903.117188 804.003906 1874.707031 804.785156 1872.488281 806.300781 M 2131.265625 806.492188 C 2128.109375 808.492188 2127.414062 835.410156 2128.070312 930.242188 L 2128.90625 1051.429688 L 2144.671875 1052.425781 C 2153.339844 1052.972656 2163.761719 1052.589844 2167.832031 1051.566406 L 2175.230469 1049.710938 L 2175.230469 930.605469 C 2175.230469 842.226562 2174.242188 810.511719 2171.398438 807.667969 C 2167.113281 803.382812 2137.527344 802.515625 2131.265625 806.492188 M 2233.160156 808.121094 C 2230.425781 811.410156 2242.117188 839.628906 2283.664062 929.984375 C 2313.394531 994.652344 2339.722656 1049.5625 2342.167969 1052.011719 C 2344.613281 1054.457031 2348.667969 1055.664062 2351.175781 1054.699219 C 2354.625 1053.371094 2429.320312 896.113281 2463.238281 818.777344 C 2468.433594 806.921875 2463.8125 803.949219 2440.09375 803.878906 C 2426.960938 803.84375 2420.964844 805.316406 2417.488281 809.421875 C 2414.886719 812.5 2398.566406 847 2381.21875 886.097656 C 2363.871094 925.195312 2348.882812 957.152344 2347.914062 957.117188 C 2346.945312 957.078125 2331.777344 924.507812 2314.203125 884.742188 C 2296.632812 844.976562 2280.355469 810.503906 2278.035156 808.136719 C 2272.371094 802.363281 2237.945312 802.347656 2233.160156 808.121094 M 2524.101562 807.667969 C 2521.257812 810.511719 2520.265625 841.746094 2520.265625 928.429688 C 2520.265625 1015.113281 2521.257812 1046.347656 2524.101562 1049.191406 C 2529.539062 1054.628906 2670.734375 1054.628906 2676.171875 1049.191406 C 2680.183594 1045.183594 2681.40625 1022.050781 2678.066406 1013.351562 C 2676.40625 1009.019531 2668.425781 1008.300781 2622.160156 1008.300781 L 2568.1875 1008.300781 L 2568.1875 947.597656 L 2660.839844 947.597656 L 2660.839844 906.066406 L 2568.1875 906.066406 L 2568.1875 848.710938 L 2623.300781 847.835938 L 2678.410156 846.960938 L 2679.382812 829.929688 C 2679.945312 820.121094 2678.765625 810.976562 2676.597656 808.367188 C 2671.546875 802.28125 2530.136719 801.632812 2524.101562 807.667969 M 1916.453125 882.105469 L 1916.453125 915.648438 L 1949.753906 915.648438 C 1980.824219 915.648438 1983.703125 915.101562 1992.773438 907.472656 C 2010.605469 892.46875 2008.875 866.949219 1989.214844 854.960938 C 1980.648438 849.742188 1973.097656 848.582031 1947.601562 848.574219 L 1916.453125 848.558594 Z M 3142.414062 884.5 C 3143.75 891.96875 3144.742188 911.019531 3144.609375 926.832031 C 3144.238281 971.445312 3131.535156 1004.691406 3097.960938 1048.90625 C 3069.113281 1086.894531 3038.578125 1135.292969 3031.460938 1154.3125 C 3026.882812 1166.554688 3024.488281 1180.5 3024.332031 1195.871094 C 3024.121094 1215.707031 3025.519531 1221.855469 3034.136719 1239.042969 C 3039.664062 1250.070312 3048.144531 1263.800781 3052.984375 1269.566406 L 3061.78125 1280.039062 L 3061.78125 1250.394531 C 3061.78125 1224.539062 3062.894531 1218.507812 3070.5 1203.179688 C 3078.9375 1186.171875 3099.039062 1159.296875 3129.933594 1123.699219 C 3210.28125 1031.136719 3218.128906 965.089844 3157.96875 887.695312 C 3150.800781 878.472656 3143.820312 870.921875 3142.453125 870.921875 C 3141.089844 870.921875 3141.074219 877.03125 3142.414062 884.5 M 3250.53125 1005.105469 C 3237.304688 1084.019531 3207.390625 1137.667969 3146.363281 1191.925781 C 3138.5 1198.914062 3132.429688 1205.742188 3132.867188 1207.101562 C 3133.308594 1208.457031 3132.386719 1209.210938 3130.828125 1208.769531 C 3126.351562 1207.511719 3098.753906 1238.128906 3091.425781 1252.480469 C 3087.566406 1260.039062 3084.160156 1274.203125 3083.289062 1286.316406 C 3081.714844 1308.261719 3087.320312 1343.75 3092.359375 1343.75 C 3093.992188 1343.75 3095.328125 1341.625 3095.328125 1339.03125 C 3095.328125 1330.246094 3110.929688 1324.027344 3143.921875 1319.660156 C 3162.003906 1317.261719 3181.828125 1313.566406 3187.976562 1311.445312 C 3203 1306.257812 3229.183594 1289.1875 3239.46875 1277.871094 C 3267.269531 1247.277344 3287.015625 1200 3287.015625 1164.035156 L 3287.015625 1144.386719 L 3271.839844 1168.726562 C 3243.472656 1214.214844 3214.144531 1238.582031 3164.917969 1257.566406 C 3138.082031 1267.917969 3130.910156 1268.515625 3145.101562 1259.214844 C 3160.910156 1248.855469 3204.710938 1204.839844 3218.683594 1185.265625 C 3235.871094 1161.191406 3249.941406 1131.46875 3257.085938 1104.140625 C 3263.703125 1078.839844 3263.882812 1025.828125 3257.421875 1005.105469 L 3252.9375 990.726562 Z M 1404.097656 1143.976562 C 1386.050781 1150.410156 1369.691406 1164.953125 1360.574219 1182.679688 C 1353.082031 1197.246094 1352.574219 1201.28125 1352.574219 1246.234375 C 1352.574219 1299.769531 1355.328125 1309.183594 1377.054688 1330.011719 C 1399.847656 1351.855469 1333.261719 1350.140625 2158.144531 1350.140625 L 2904.820312 1350.140625 L 2918.597656 1343.46875 C 2926.175781 1339.800781 2937.464844 1330.851562 2943.683594 1323.589844 C 2960.464844 1303.984375 2965.203125 1283.683594 2963.863281 1237.113281 C 2962.882812 1202.9375 2961.75 1196.277344 2954.582031 1182.351562 C 2945.398438 1164.507812 2925.339844 1147.566406 2907.554688 1142.625 C 2899.507812 1140.390625 2656.117188 1139.359375 2156.0625 1139.441406 C 1535.46875 1139.546875 1414.480469 1140.273438 1404.097656 1143.972656 M 2073 1198.5 C 2073 1221.3125 2072.675781 1222.398438 2066.820312 1219.265625 C 2055.476562 1213.195312 2035.753906 1215.328125 2026.054688 1223.667969 C 2017.894531 1230.6875 2017.089844 1233.296875 2017.089844 1252.726562 C 2017.089844 1272.609375 2017.746094 1274.597656 2026.675781 1281.738281 C 2037.980469 1290.785156 2058.214844 1292.085938 2069.089844 1284.464844 C 2075.519531 1279.964844 2076.191406 1279.964844 2076.191406 1284.464844 C 2076.191406 1287.640625 2079.082031 1289.4375 2084.179688 1289.4375 L 2092.167969 1289.4375 L 2092.167969 1174.425781 L 2073 1174.425781 Z M 2156.0625 1231.933594 L 2156.0625 1289.4375 L 2163.890625 1289.4375 C 2168.195312 1289.4375 2172.976562 1287.195312 2174.511719 1284.445312 C 2177.050781 1279.914062 2177.695312 1279.914062 2181.453125 1284.445312 C 2187.609375 1291.859375 2210.796875 1290.945312 2221.046875 1282.878906 C 2238.289062 1269.316406 2238.269531 1236.066406 2221.015625 1222.492188 C 2211.9375 1215.351562 2191.789062 1213.710938 2181.410156 1219.265625 C 2175.554688 1222.398438 2175.230469 1221.3125 2175.230469 1198.5 L 2175.230469 1174.425781 L 2156.0625 1174.425781 Z M 1443.625 1235.128906 L 1443.625 1289.4375 L 1451.613281 1289.4375 C 1459.375 1289.4375 1459.601562 1288.800781 1459.601562 1267.074219 L 1459.601562 1244.710938 L 1474.078125 1244.710938 C 1491.679688 1244.710938 1508.988281 1237.9375 1513.65625 1229.21875 C 1519.816406 1217.710938 1517.789062 1201.539062 1509.097656 1192.847656 C 1500.484375 1184.234375 1486.980469 1180.90625 1460.398438 1180.851562 L 1443.625 1180.816406 Z M 2382.890625 1235.128906 L 2382.890625 1289.4375 L 2446.789062 1289.4375 L 2446.789062 1270.269531 L 2402.0625 1270.269531 L 2402.0625 1180.816406 L 2382.890625 1180.816406 Z M 1461.894531 1198.757812 C 1460.632812 1200.015625 1459.601562 1207.277344 1459.601562 1214.894531 C 1459.601562 1228.394531 1459.859375 1228.738281 1469.984375 1228.691406 C 1501.492188 1228.550781 1507.410156 1203.347656 1477.070312 1198.515625 C 1469.984375 1197.386719 1463.15625 1197.496094 1461.894531 1198.757812 M 1548.789062 1224.847656 C 1529.871094 1241.753906 1534.828125 1277.800781 1557.253906 1286.324219 C 1591.089844 1299.191406 1621.734375 1274.144531 1612.792969 1240.933594 C 1608.355469 1224.449219 1595.492188 1215.960938 1574.96875 1215.960938 C 1561.730469 1215.960938 1556.902344 1217.597656 1548.789062 1224.847656 M 1641.753906 1251.640625 C 1648.753906 1271.261719 1654.480469 1287.792969 1654.480469 1288.378906 C 1654.480469 1288.964844 1658.679688 1289.4375 1663.808594 1289.4375 C 1672.65625 1289.4375 1673.5 1288.207031 1680.296875 1265.320312 C 1688.238281 1238.554688 1689.113281 1238.746094 1699.421875 1269.472656 C 1705.445312 1287.429688 1706.996094 1289.4375 1714.808594 1289.4375 C 1723.007812 1289.4375 1724.113281 1287.574219 1734.214844 1256.691406 C 1740.105469 1238.683594 1745.578125 1222.152344 1746.371094 1219.953125 C 1747.3125 1217.347656 1744.621094 1215.960938 1738.648438 1215.960938 C 1730.054688 1215.960938 1729.101562 1217.3125 1723.445312 1237.523438 C 1720.125 1249.382812 1716.710938 1260.351562 1715.855469 1261.890625 C 1715.003906 1263.429688 1710.824219 1253.640625 1706.5625 1240.136719 C 1698.957031 1216.015625 1698.648438 1215.601562 1688.949219 1216.570312 C 1679.632812 1217.503906 1678.683594 1218.894531 1671.96875 1241.519531 L 1664.847656 1265.480469 L 1657.269531 1240.746094 C 1649.863281 1216.578125 1649.457031 1216.019531 1639.359375 1215.988281 L 1629.027344 1215.960938 Z M 1773.96875 1226.820312 C 1762.382812 1238.40625 1759.886719 1251.8125 1766.21875 1268.460938 C 1773.351562 1287.21875 1808.492188 1296.175781 1824.25 1283.257812 C 1831.144531 1277.605469 1831.359375 1276.628906 1826.730469 1271.917969 C 1822.078125 1267.179688 1820.859375 1267.226562 1811.59375 1272.511719 C 1802.390625 1277.757812 1800.753906 1277.832031 1792.71875 1273.355469 C 1787.878906 1270.660156 1783.441406 1265.988281 1782.863281 1262.972656 C 1781.929688 1258.140625 1785.039062 1257.492188 1809.195312 1257.492188 C 1839.113281 1257.492188 1838.832031 1257.722656 1833.25 1237.617188 C 1828.929688 1222.074219 1819.664062 1215.960938 1800.410156 1215.960938 C 1786.949219 1215.960938 1783.351562 1217.4375 1773.96875 1226.820312 M 1859.640625 1251.902344 L 1860.546875 1287.84375 L 1869.332031 1288.851562 L 1878.117188 1289.863281 L 1878.117188 1268 C 1878.117188 1241.835938 1883.429688 1231.933594 1897.46875 1231.933594 C 1905.367188 1231.933594 1906.871094 1230.65625 1906.871094 1223.945312 C 1906.871094 1217.417969 1905.308594 1215.960938 1898.335938 1215.960938 C 1893.644531 1215.960938 1887.175781 1218.339844 1883.960938 1221.246094 C 1878.523438 1226.167969 1878.117188 1226.167969 1878.117188 1221.246094 C 1878.117188 1217.488281 1875.316406 1215.960938 1868.425781 1215.960938 L 1858.738281 1215.960938 Z M 1934.6875 1222.398438 C 1915.417969 1237.554688 1916.46875 1270.917969 1936.59375 1283.191406 C 1950.351562 1291.578125 1970.671875 1291.347656 1981.695312 1282.675781 C 1990.238281 1275.957031 1990.25 1275.886719 1983.722656 1271.316406 C 1977.972656 1267.285156 1976.269531 1267.332031 1970.054688 1271.6875 C 1960.496094 1278.378906 1952.882812 1277.949219 1945.207031 1270.269531 C 1934.335938 1259.398438 1937.4375 1257.492188 1965.972656 1257.492188 C 1992.949219 1257.492188 1993.128906 1257.4375 1993.128906 1249.34375 C 1993.128906 1238.710938 1985.09375 1223.402344 1977.332031 1219.25 C 1966.78125 1213.601562 1943.703125 1215.308594 1934.6875 1222.398438 M 2263.417969 1250.304688 C 2271.367188 1269.195312 2277.949219 1285.367188 2278.046875 1286.246094 C 2279.402344 1298.605469 2271.175781 1308.609375 2259.667969 1308.609375 C 2253.519531 1308.609375 2251.90625 1310.269531 2251.90625 1316.59375 C 2251.90625 1323.722656 2253.222656 1324.582031 2264.128906 1324.582031 C 2272.683594 1324.582031 2278.367188 1322.425781 2283.070312 1317.394531 C 2288.398438 1311.691406 2325.386719 1224.535156 2325.386719 1217.671875 C 2325.386719 1216.730469 2321.191406 1215.960938 2316.0625 1215.960938 C 2307.378906 1215.960938 2306.253906 1217.433594 2299.695312 1237.523438 C 2295.816406 1249.382812 2291.605469 1260.238281 2290.328125 1261.640625 C 2289.054688 1263.042969 2283.871094 1253.339844 2278.804688 1240.078125 C 2269.96875 1216.925781 2269.183594 1215.960938 2259.28125 1215.960938 L 2248.960938 1215.960938 Z M 2474.742188 1219.410156 C 2471.667969 1221.203125 2469.152344 1224.597656 2469.152344 1226.960938 C 2469.152344 1232.605469 2476.542969 1235.277344 2482.222656 1231.6875 C 2488.683594 1227.59375 2502.363281 1228.085938 2506.847656 1232.574219 C 2514.941406 1240.664062 2511.039062 1244.710938 2495.140625 1244.710938 C 2467.378906 1244.710938 2452.605469 1266.503906 2469.152344 1283.050781 C 2476.121094 1290.019531 2494.183594 1291.65625 2504.308594 1286.234375 C 2508.308594 1284.09375 2510.953125 1284.09375 2512.273438 1286.234375 C 2513.363281 1288 2517.042969 1289.4375 2520.457031 1289.4375 C 2526.160156 1289.4375 2526.65625 1287 2526.65625 1259.089844 C 2526.65625 1221.3125 2522.945312 1215.910156 2497.105469 1216.054688 C 2487.878906 1216.109375 2477.816406 1217.617188 2474.742188 1219.410156 M 2555.410156 1252.910156 L 2555.410156 1289.863281 L 2564.195312 1288.851562 C 2572.734375 1287.871094 2573.007812 1287.21875 2573.941406 1265.550781 C 2575 1241.042969 2580.066406 1231.933594 2592.644531 1231.933594 C 2598.507812 1231.933594 2600.136719 1230.195312 2600.136719 1223.945312 C 2600.136719 1217.328125 2598.605469 1215.960938 2591.191406 1215.960938 C 2586.273438 1215.960938 2580.519531 1217.683594 2578.414062 1219.792969 C 2575.433594 1222.773438 2574.578125 1222.773438 2574.578125 1219.792969 C 2574.578125 1217.664062 2570.320312 1215.960938 2564.996094 1215.960938 L 2555.410156 1215.960938 Z M 2622.734375 1224.378906 C 2619.089844 1229.007812 2616.109375 1234.597656 2616.109375 1236.800781 C 2616.109375 1244.5625 2628.160156 1255.5625 2640.4375 1259.007812 C 2649.472656 1261.542969 2652.851562 1264.199219 2652.851562 1268.777344 C 2652.851562 1276.914062 2639.96875 1279.003906 2632.339844 1272.097656 C 2627.191406 1267.4375 2626.253906 1267.550781 2620.882812 1273.492188 C 2615.203125 1279.765625 2615.210938 1280.09375 2621.164062 1284.597656 C 2624.53125 1287.148438 2633.929688 1289.28125 2642.035156 1289.335938 C 2660.484375 1289.464844 2673.617188 1280.320312 2673.617188 1267.339844 C 2673.617188 1256.570312 2666.390625 1249.5625 2649.613281 1244.0625 C 2636.210938 1239.675781 2634.300781 1235.851562 2642.824219 1230.476562 C 2646.539062 1228.136719 2649.996094 1228.410156 2654.839844 1231.4375 C 2660.613281 1235.042969 2662.394531 1234.941406 2666.558594 1230.777344 C 2674.945312 1222.390625 2666.152344 1215.960938 2646.300781 1215.960938 C 2631.796875 1215.960938 2628.398438 1217.171875 2622.734375 1224.378906 M 2703.648438 1226.820312 C 2694.378906 1236.09375 2692.785156 1239.882812 2692.785156 1252.699219 C 2692.785156 1265.515625 2694.375 1269.304688 2703.648438 1278.578125 C 2713.214844 1288.144531 2716.492188 1289.441406 2731.125 1289.441406 C 2745.753906 1289.441406 2749.03125 1288.144531 2758.597656 1278.578125 C 2767.996094 1269.179688 2769.449219 1265.628906 2769.390625 1252.21875 C 2769.277344 1227.734375 2756.300781 1215.960938 2729.417969 1215.960938 C 2716.722656 1215.960938 2712.898438 1217.574219 2703.648438 1226.820312 M 2795.019531 1252.910156 L 2795.019531 1289.863281 L 2803.804688 1288.851562 C 2812.414062 1287.863281 2812.609375 1287.363281 2813.542969 1264.023438 C 2814.570312 1238.304688 2817.503906 1231.933594 2828.316406 1231.933594 C 2840.199219 1231.933594 2842.941406 1238.082031 2842.941406 1264.730469 L 2842.941406 1289.863281 L 2851.726562 1288.851562 L 2860.511719 1287.84375 L 2860.511719 1258.617188 C 2860.511719 1234.359375 2859.476562 1228.25 2854.425781 1222.675781 C 2846.835938 1214.300781 2825.410156 1213.488281 2816.835938 1221.246094 C 2811.398438 1226.167969 2810.992188 1226.167969 2810.992188 1221.246094 C 2810.992188 1217.734375 2808.308594 1215.960938 2803.003906 1215.960938 L 2795.019531 1215.960938 Z M 1785.582031 1234.917969 C 1780.527344 1244.363281 1781.03125 1244.710938 1799.84375 1244.710938 C 1812.132812 1244.710938 1817.417969 1243.464844 1817.417969 1240.558594 C 1817.417969 1228.230469 1791.609375 1223.660156 1785.582031 1234.917969 M 1944.105469 1234.582031 C 1936 1243.539062 1937.429688 1244.710938 1956.390625 1244.710938 C 1968.675781 1244.710938 1973.960938 1243.464844 1973.960938 1240.558594 C 1973.960938 1228.601562 1953.269531 1224.457031 1944.105469 1234.582031 M 1560.730469 1237.777344 C 1549.300781 1250.40625 1558.941406 1273.464844 1575.65625 1273.464844 C 1584.84375 1273.464844 1596.976562 1261.078125 1596.976562 1251.695312 C 1596.976562 1235.089844 1571.882812 1225.453125 1560.730469 1237.777344 M 2039.890625 1236.746094 C 2031.332031 1245.304688 2030.351562 1254.472656 2037.035156 1263.464844 C 2049.628906 1280.410156 2073 1273.410156 2073 1252.699219 C 2073 1235.011719 2051.828125 1224.808594 2039.890625 1236.746094 M 2180.519531 1237.777344 C 2168.96875 1250.539062 2178.761719 1273.464844 2195.765625 1273.464844 C 2204.441406 1273.464844 2216.761719 1260.089844 2216.761719 1250.671875 C 2216.761719 1234.964844 2191.269531 1225.894531 2180.519531 1237.777344 M 2717.242188 1237.777344 C 2704.726562 1251.605469 2715.171875 1275.011719 2732.921875 1272.90625 C 2744.066406 1271.585938 2754.953125 1257.5625 2752.015625 1248.308594 C 2746.871094 1232.09375 2727.652344 1226.273438 2717.242188 1237.777344 M 2485.609375 1260.320312 C 2478.546875 1264.796875 2482.640625 1274.953125 2491.941406 1276.035156 C 2500.796875 1277.066406 2510.683594 1269.691406 2510.683594 1262.058594 C 2510.683594 1256.941406 2492.882812 1255.710938 2485.609375 1260.320312 " fill-opacity="1" fill-rule="evenodd"/></g></svg>