<svg xmlns="http://www.w3.org/2000/svg" width="821" height="304" viewBox="0 0 821 304">
<g>
<path d="M 77.09 222.04 C74.10,221.55 71.92,220.44 70.34,218.61 L 68.00 215.89 L 67.82 175.94 C67.72,153.97 67.61,134.99 67.57,133.75 C67.50,131.53 67.68,131.50 80.19,131.50 C92.86,131.50 92.88,131.50 95.94,134.44 L 99.00 137.37 L 99.00 180.19 L 99.00 223.00 L 90.25 222.87 C85.44,222.81 79.51,222.43 77.09,222.04 ZM 263.43 192.69 C263.16,191.96 263.06,186.45 263.21,180.44 L 263.50 169.50 L 270.34 169.50 C276.32,169.50 277.42,169.80 279.09,171.86 C281.34,174.65 281.51,178.74 279.49,181.42 C278.46,182.77 276.41,183.47 272.52,183.79 L 267.00 184.25 L 267.00 189.12 C267.00,192.84 266.63,194.00 265.47,194.00 C264.63,194.00 263.71,193.41 263.43,192.69 ZM 276.80 179.80 C280.11,176.49 276.74,172.00 270.93,172.00 L 267.00 172.00 L 267.00 176.50 L 267.00 181.00 L 271.30 181.00 C273.67,181.00 276.14,180.46 276.80,179.80 ZM 290.00 181.50 L 290.00 169.00 L 295.07 169.00 C300.06,169.00 303.80,170.25 305.23,172.40 C306.68,174.56 306.00,179.69 304.04,181.46 C302.10,183.22 302.11,183.28 304.54,188.08 C307.42,193.77 307.46,194.00 305.52,194.00 C304.70,194.00 302.89,191.75 301.50,189.00 C299.31,184.68 298.56,184.00 295.98,184.00 C293.07,184.00 293.00,184.12 293.00,189.00 C293.00,192.78 292.63,194.00 291.50,194.00 C290.25,194.00 290.00,191.94 290.00,181.50 ZM 301.80 179.80 C302.46,179.14 303.00,177.65 303.00,176.50 C303.00,173.40 301.07,172.00 296.80,172.00 L 293.00 172.00 L 293.00 176.50 L 293.00 181.00 L 296.80 181.00 C298.89,181.00 301.14,180.46 301.80,179.80 ZM 318.66 191.95 C317.22,190.82 315.57,188.11 314.98,185.93 C311.76,173.95 322.26,164.16 330.62,171.35 C335.84,175.84 334.82,189.88 329.06,192.97 C325.99,194.61 321.48,194.17 318.66,191.95 ZM 328.46 189.65 C330.84,187.92 331.66,178.60 329.77,175.00 C327.90,171.45 321.85,170.95 319.60,174.17 C317.52,177.14 317.49,185.83 319.56,188.78 C321.34,191.32 325.61,191.74 328.46,189.65 ZM 349.51 192.75 C349.27,192.06 347.26,186.59 345.03,180.59 C342.80,174.59 341.19,169.47 341.45,169.22 C342.94,167.72 344.98,170.82 347.52,178.46 C349.10,183.23 350.72,187.33 351.11,187.57 C351.51,187.81 353.26,183.74 355.00,178.51 C357.41,171.25 358.59,169.00 359.94,169.00 C361.50,169.00 361.16,170.55 357.21,181.50 C353.01,193.14 350.77,196.41 349.51,192.75 ZM 370.00 181.50 C370.00,171.06 370.25,169.00 371.50,169.00 C372.75,169.00 373.00,171.06 373.00,181.50 C373.00,191.94 372.75,194.00 371.50,194.00 C370.25,194.00 370.00,191.94 370.00,181.50 ZM 387.00 193.29 C384.63,192.42 382.00,189.82 382.00,188.35 C382.00,186.26 384.80,186.76 386.03,189.05 C386.92,190.71 387.93,191.05 391.31,190.80 C395.22,190.52 395.50,190.30 395.50,187.53 C395.50,184.98 394.92,184.34 391.50,183.02 C384.10,180.17 383.00,179.20 383.00,175.52 C383.00,171.45 385.87,169.00 390.64,169.00 C395.22,169.00 396.88,169.86 398.56,173.12 C399.97,175.84 399.94,176.00 398.03,176.00 C396.88,176.00 396.00,175.34 396.00,174.48 C396.00,173.64 394.88,172.52 393.50,172.00 C390.14,170.72 386.00,172.34 386.00,174.92 C386.00,177.15 389.53,180.00 392.30,180.00 C394.58,180.00 400.00,185.25 400.00,187.47 C400.00,190.37 395.38,194.01 391.80,193.92 C389.98,193.88 387.83,193.59 387.00,193.29 ZM 409.00 182.08 C409.00,171.90 409.24,170.00 410.53,170.00 C411.84,170.00 412.02,171.73 411.78,181.67 C411.58,189.91 411.13,193.46 410.25,193.75 C409.30,194.07 409.00,191.30 409.00,182.08 ZM 426.12 192.37 C424.84,191.47 423.16,189.24 422.39,187.40 C417.78,176.36 426.76,165.05 436.15,170.08 C440.28,172.29 442.20,181.27 439.93,187.78 C437.94,193.49 431.00,195.79 426.12,192.37 ZM 435.43 189.08 C437.94,186.31 438.50,180.13 436.65,175.71 C435.30,172.46 434.68,172.00 431.71,172.00 C426.94,172.00 424.79,174.72 424.70,180.84 C424.60,187.15 426.94,191.00 430.87,191.00 C432.42,191.00 434.47,190.13 435.43,189.08 ZM 450.69 193.35 C450.31,192.98 450.00,187.34 450.00,180.83 C450.00,165.61 451.07,165.31 459.50,178.21 L 465.50 187.38 L 465.79 178.19 C466.01,170.92 466.38,169.00 467.54,169.00 C468.74,169.00 469.00,171.20 469.00,181.50 C469.00,191.42 468.72,194.00 467.63,194.00 C466.87,194.00 463.61,189.97 460.38,185.06 L 454.50 176.11 L 454.00 184.73 C453.54,192.58 452.54,195.20 450.69,193.35 ZM 496.00 193.29 C493.63,192.42 491.00,189.82 491.00,188.35 C491.00,186.26 493.80,186.76 495.03,189.05 C495.92,190.71 496.93,191.05 500.31,190.80 C504.22,190.52 504.50,190.30 504.50,187.53 C504.50,184.98 503.92,184.34 500.50,183.02 C493.10,180.17 492.00,179.20 492.00,175.52 C492.00,173.13 492.67,171.65 494.22,170.56 C498.87,167.30 508.00,169.62 508.00,174.06 C508.00,176.55 505.32,176.59 504.53,174.11 C503.30,170.23 495.00,170.94 495.00,174.92 C495.00,177.11 498.51,180.00 501.17,180.00 C504.15,180.00 508.25,184.34 508.25,187.50 C508.25,192.47 501.91,195.46 496.00,193.29 ZM 517.00 181.50 L 517.00 169.00 L 525.00 169.00 C531.44,169.00 533.00,169.29 533.00,170.50 C533.00,171.68 531.60,172.00 526.44,172.00 L 519.88 172.00 L 520.19 175.75 L 520.50 179.50 L 525.75 179.80 C528.64,179.97 531.00,180.51 531.00,181.00 C531.00,181.49 528.64,182.03 525.75,182.20 L 520.50 182.50 L 520.19 186.75 L 519.89 191.00 L 526.44 191.00 C531.60,191.00 533.00,191.32 533.00,192.50 C533.00,193.71 531.44,194.00 525.00,194.00 L 517.00 194.00 L 517.00 181.50 ZM 541.43 192.69 C541.16,191.96 541.06,186.45 541.21,180.44 L 541.50 169.50 L 547.65 169.51 C552.28,169.51 554.32,169.98 555.90,171.41 C558.57,173.82 558.59,177.99 555.95,181.34 L 553.90 183.94 L 556.50 188.59 C557.93,191.15 558.87,193.47 558.59,193.74 C557.36,194.98 554.83,192.70 552.80,188.53 C550.97,184.76 550.13,184.00 547.80,184.00 C545.11,184.00 545.00,184.19 545.00,189.00 C545.00,192.82 544.64,194.00 543.47,194.00 C542.63,194.00 541.71,193.41 541.43,192.69 ZM 553.43 179.43 C555.27,177.59 555.37,176.56 553.96,173.93 C553.21,172.52 551.86,172.00 548.96,172.00 L 545.00 172.00 L 545.00 176.50 C545.00,180.96 545.03,181.00 548.43,181.00 C550.31,181.00 552.56,180.29 553.43,179.43 ZM 573.09 192.16 C571.76,189.68 565.00,171.06 565.00,169.88 C565.00,169.40 565.62,169.00 566.39,169.00 C567.25,169.00 569.03,172.64 571.06,178.53 C572.87,183.77 574.68,187.70 575.08,187.28 C575.49,186.85 577.15,182.68 578.79,178.00 C580.68,172.59 582.34,169.38 583.38,169.18 C584.27,169.00 584.98,169.22 584.95,169.68 C584.79,172.23 576.31,193.41 575.32,193.73 C574.67,193.95 573.66,193.24 573.09,192.16 ZM 593.69 193.35 C593.31,192.98 593.00,187.31 593.00,180.76 C593.00,169.96 593.16,168.88 594.75,169.19 C596.30,169.49 596.50,170.89 596.50,181.43 C596.50,192.54 595.81,195.47 593.69,193.35 ZM 611.21 192.95 C606.62,191.11 604.60,181.29 607.42,174.55 C609.10,170.52 611.58,169.00 616.48,169.00 C620.34,169.00 625.00,172.53 625.00,175.45 C625.00,177.65 621.91,177.37 621.32,175.12 C621.05,174.09 619.69,172.72 618.29,172.09 C616.24,171.15 615.29,171.24 613.33,172.52 C608.94,175.40 607.81,181.68 610.61,187.60 C611.98,190.47 612.75,191.00 615.59,191.00 C618.07,191.00 619.38,190.35 620.59,188.50 C621.49,187.12 622.85,186.00 623.61,186.00 C625.29,186.00 625.31,186.23 623.89,189.34 C622.02,193.44 616.40,195.04 611.21,192.95 ZM 634.00 181.54 L 634.00 169.00 L 641.50 169.00 C647.50,169.00 649.00,169.30 649.00,170.50 C649.00,171.67 647.67,172.00 643.00,172.00 L 637.00 172.00 L 637.00 176.00 L 637.00 180.00 L 642.50 180.00 C649.51,180.00 649.72,181.80 642.75,182.20 L 637.50 182.50 L 637.19 186.70 L 636.89 190.90 L 643.19 191.20 C652.08,191.62 651.07,193.44 641.75,193.79 L 634.00 194.08 L 634.00 181.54 ZM 131.16 148.02 C131.48,137.61 131.64,136.90 134.23,134.32 C136.78,131.76 137.67,131.55 148.42,130.96 C155.45,130.58 160.49,129.84 161.44,129.05 C162.68,128.02 163.00,125.46 163.00,116.41 C163.00,105.84 162.85,104.99 160.86,103.92 C159.39,103.14 144.39,102.57 113.19,102.14 L 67.67 101.50 L 67.80 91.55 C67.87,86.07 68.43,80.38 69.05,78.88 C71.19,73.71 72.68,73.56 121.59,73.63 L 166.73 73.69 L 173.19 76.71 C180.98,80.36 186.40,85.63 189.89,93.00 C192.41,98.31 192.50,99.13 192.50,117.00 C192.50,134.18 192.34,135.83 190.25,140.08 C186.71,147.24 181.51,152.59 174.82,155.93 L 168.68 159.00 L 149.75 159.00 L 130.82 159.00 L 131.16 148.02 ZM 323.92 134.73 C322.07,133.48 319.52,130.93 318.27,129.08 C316.13,125.90 316.00,124.72 316.00,108.85 L 316.00 92.00 L 320.00 92.00 L 324.00 92.00 L 324.02 107.75 C324.05,125.69 324.70,127.59 331.23,128.65 C334.41,129.17 335.32,128.83 337.95,126.20 L 341.00 123.15 L 341.00 107.58 L 341.00 92.00 L 345.08 92.00 L 349.17 92.00 L 348.83 109.25 C348.52,125.44 348.36,126.70 346.17,129.77 C341.19,136.75 330.47,139.14 323.92,134.73 ZM 261.00 114.06 L 261.00 92.00 L 271.98 92.00 C285.89,92.00 290.19,93.49 293.20,99.38 C295.99,104.82 296.08,113.46 293.38,118.12 C290.56,123.01 285.91,125.00 277.30,125.00 L 270.10 125.00 L 269.80 130.25 L 269.50 135.50 L 265.25 135.81 L 261.00 136.11 L 261.00 114.06 ZM 284.78 115.44 C286.56,114.19 287.00,112.92 287.00,108.94 C287.00,101.82 284.88,100.00 276.58,100.00 L 270.15 100.00 L 269.83 108.09 C269.65,112.54 269.69,116.36 269.92,116.59 C271.09,117.75 282.77,116.85 284.78,115.44 ZM 370.00 114.00 L 370.00 92.00 L 380.98 92.00 C394.68,92.00 399.21,93.52 402.04,99.09 C404.73,104.34 404.66,113.01 401.89,118.74 L 399.77 123.11 L 401.89 128.91 C403.05,132.10 404.00,135.00 404.00,135.35 C404.00,135.71 402.19,136.00 399.98,136.00 C395.72,136.00 395.96,136.26 392.97,128.25 C391.76,125.02 391.72,125.00 384.88,125.00 L 378.00 125.00 L 378.00 130.50 L 378.00 136.00 L 374.00 136.00 L 370.00 136.00 L 370.00 114.00 ZM 394.00 115.00 C396.40,112.60 396.73,105.39 394.58,102.44 C393.40,100.83 391.93,100.50 385.83,100.50 L 378.50 100.50 L 378.21 108.75 L 377.92 117.00 L 384.96 117.00 C390.67,117.00 392.38,116.62 394.00,115.00 ZM 425.00 114.00 L 425.00 92.00 L 437.50 92.00 L 450.00 92.00 L 450.00 96.00 L 450.00 100.00 L 441.50 100.00 L 433.00 100.00 L 433.00 105.00 L 433.00 110.00 L 438.50 110.00 L 444.00 110.00 L 444.00 114.00 L 444.00 118.00 L 438.50 118.00 L 433.00 118.00 L 433.00 123.00 L 433.00 128.00 L 441.50 128.00 L 450.00 128.00 L 450.00 132.00 L 450.00 136.00 L 437.50 136.00 L 425.00 136.00 L 425.00 114.00 ZM 514.00 118.00 L 514.00 100.00 L 508.00 100.00 L 502.00 100.00 L 502.00 96.00 L 502.00 92.00 L 518.00 92.00 L 534.00 92.00 L 534.00 96.00 L 534.00 100.00 L 528.00 100.00 L 522.00 100.00 L 522.00 118.00 L 522.00 136.00 L 518.00 136.00 L 514.00 136.00 L 514.00 118.00 ZM 545.49 134.75 C545.83,133.78 551.56,114.39 557.62,93.75 C558.01,92.44 559.20,92.00 562.42,92.00 L 566.71 92.00 L 568.96 99.75 C570.20,104.01 572.96,113.38 575.11,120.56 C577.25,127.75 579.00,134.16 579.00,134.81 C579.00,135.53 577.44,136.00 575.07,136.00 C571.17,136.00 571.13,135.96 569.54,130.50 L 567.94 125.00 L 562.52 125.00 L 557.10 125.00 L 555.37 130.50 L 553.63 136.00 L 549.35 136.00 C546.36,136.00 545.19,135.62 545.49,134.75 ZM 564.99 116.25 C564.99,115.84 564.48,113.70 563.85,111.50 L 562.71 107.50 L 561.40 110.50 C559.34,115.22 559.64,117.00 562.50,117.00 C563.88,117.00 565.00,116.66 564.99,116.25 ZM 599.00 114.00 L 599.00 92.00 L 603.00 92.00 L 607.00 92.00 L 607.00 110.00 L 607.00 128.00 L 615.50 128.00 L 624.00 128.00 L 624.00 132.00 L 624.00 136.00 L 611.50 136.00 L 599.00 136.00 L 599.00 114.00 ZM 645.00 114.00 L 645.00 92.00 L 658.00 92.00 L 671.00 92.00 L 671.00 95.96 L 671.00 99.92 L 662.25 100.21 L 653.50 100.50 L 653.20 105.25 L 652.89 110.00 L 658.45 110.00 L 664.00 110.00 L 664.00 114.00 L 664.00 118.00 L 658.45 118.00 L 652.89 118.00 L 653.20 122.75 L 653.50 127.50 L 662.25 127.79 L 671.00 128.08 L 671.00 132.04 L 671.00 136.00 L 658.00 136.00 L 645.00 136.00 L 645.00 114.00 ZM 692.00 114.00 L 692.00 92.00 L 696.31 92.00 L 700.62 92.00 L 708.06 105.02 C712.15,112.18 716.05,118.82 716.72,119.77 C717.70,121.16 717.94,118.63 717.97,106.75 L 718.00 92.00 L 722.00 92.00 L 726.00 92.00 L 726.00 114.00 L 726.00 136.00 L 720.75 135.98 L 715.50 135.95 L 707.76 122.23 L 700.03 108.50 L 700.01 122.25 L 700.00 136.00 L 696.00 136.00 L 692.00 136.00 L 692.00 114.00 ZM 759.00 118.00 L 759.00 100.00 L 753.00 100.00 L 747.00 100.00 L 747.00 96.00 L 747.00 92.00 L 763.50 92.00 L 780.00 92.00 L 780.00 96.00 L 780.00 100.00 L 774.00 100.00 L 768.00 100.00 L 768.00 118.00 L 768.00 136.00 L 763.50 136.00 L 759.00 136.00 L 759.00 118.00 Z" fill="rgba(108,35,3,1)"/>
</g>
</svg>